<svg width="135" height="37" viewBox="0 0 135 37" fill="none" xmlns="http://www.w3.org/2000/svg">
<path d="M5.236 17.256L5.32 19.412V30.5H2.184V9.416L14.644 23.276L14.56 21.036V9.92H17.696V31.004L5.236 17.256ZM23.4629 9.92H32.4789V12.664H26.5709V18.348H31.3309V21.148H26.5709V27.728H33.4029V30.5H23.4629V9.92ZM35.5526 9.92H38.8846L43.8126 22.968L49.5526 9.5L55.2646 22.968L60.1926 9.92H63.5246L55.3206 30.892L49.5246 17.116L43.7566 30.892L35.5526 9.92ZM71.6277 30.78C70.5077 30.78 69.397 30.584 68.2957 30.192C67.1944 29.8 66.401 29.3613 65.9157 28.876L67.3997 26.216C67.7917 26.5707 68.3984 26.944 69.2197 27.336C70.0597 27.7093 70.8624 27.896 71.6277 27.896C72.617 27.896 73.4197 27.6627 74.0357 27.196C74.6704 26.7293 74.9877 26.0853 74.9877 25.264C74.9877 24.6293 74.8197 24.0787 74.4837 23.612C74.1477 23.1453 73.737 22.7627 73.2517 22.464C72.7664 22.1467 72.0757 21.764 71.1797 21.316C70.1157 20.7933 69.3877 20.4013 68.9957 20.14C67.185 18.9267 66.2797 17.2467 66.2797 15.1C66.2797 13.3267 66.8677 11.9733 68.0437 11.04C69.2197 10.088 70.7037 9.612 72.4957 9.612C74.4184 9.612 76.0517 10.1627 77.3957 11.264L75.9117 13.812C75.557 13.4387 75.053 13.1213 74.3997 12.86C73.765 12.58 73.0837 12.44 72.3557 12.44C71.4224 12.44 70.685 12.6547 70.1437 13.084C69.621 13.4947 69.3597 14.1107 69.3597 14.932C69.3597 15.5107 69.5277 16.0333 69.8637 16.5C70.1997 16.948 70.6197 17.34 71.1237 17.676C71.6464 18.012 72.3464 18.4227 73.2237 18.908C74.0637 19.3747 74.7077 19.748 75.1557 20.028C75.6037 20.2893 76.0237 20.6067 76.4157 20.98C76.957 21.4653 77.3957 22.044 77.7317 22.716C78.0677 23.388 78.2357 24.1253 78.2357 24.928C78.2357 26.1787 77.9464 27.2427 77.3677 28.12C76.8077 28.9973 76.0237 29.66 75.0157 30.108C74.0264 30.556 72.897 30.78 71.6277 30.78ZM98.6339 9.248L108.714 30.5H105.102L103.338 26.468H93.9019L92.1379 30.5H88.6379L98.6339 9.248ZM102.106 23.64L98.6619 15.772L95.1619 23.64H102.106ZM111.838 9.92H116.374C118.931 9.92 120.798 10.4707 121.974 11.572C123.169 12.6547 123.766 14.148 123.766 16.052C123.766 18.2547 123.122 19.944 121.834 21.12C120.546 22.296 118.633 22.884 116.094 22.884H115.002V30.5H111.838V9.92ZM116.178 20.112C117.821 20.112 118.969 19.748 119.622 19.02C120.275 18.292 120.602 17.4147 120.602 16.388C120.602 15.2867 120.285 14.3907 119.65 13.7C119.015 13.0093 117.951 12.664 116.458 12.664H115.002V20.112H116.178ZM128.45 9.92H131.586V30.5H128.45V9.92Z" fill="white"/>
</svg>
