<svg width="135" height="37" viewBox="0 0 135 37" fill="none" xmlns="http://www.w3.org/2000/svg">
<path d="M5.236 16.172L5.32 18.412V29.5H2.184V8.892H2.576L14.672 22.388L14.56 20.036V8.92H17.696V29.5H17.276L5.236 16.172ZM23.4349 8.92H32.4509V11.664H26.5429V17.348H31.3029V20.148H26.5429V26.728H33.3749V29.5H23.4349V8.92ZM55.2372 22.164L60.1652 8.92H63.4972L55.4892 29.5H55.0972L49.4972 16.172L43.9252 29.472H43.5332L35.5252 8.92H38.8572L43.7852 22.164L49.4412 8.808H49.6092L55.2372 22.164ZM71.6004 29.78C70.4804 29.78 69.3697 29.584 68.2684 29.192C67.167 28.8 66.3737 28.3613 65.8884 27.876L67.3724 25.216C67.7644 25.5707 68.371 25.944 69.1924 26.336C70.0324 26.7093 70.835 26.896 71.6004 26.896C72.5897 26.896 73.3924 26.6627 74.0084 26.196C74.643 25.7293 74.9604 25.0853 74.9604 24.264C74.9604 23.6293 74.7924 23.0787 74.4564 22.612C74.1204 22.1453 73.7097 21.7627 73.2244 21.464C72.739 21.1467 72.0484 20.764 71.1524 20.316C70.0884 19.7933 69.3604 19.4013 68.9684 19.14C67.1577 17.9267 66.2524 16.2467 66.2524 14.1C66.2524 12.3267 66.8404 10.9733 68.0164 10.04C69.1924 9.088 70.6764 8.612 72.4684 8.612C74.391 8.612 76.0244 9.16267 77.3684 10.264L75.8844 12.812C75.5297 12.4387 75.0257 12.1213 74.3724 11.86C73.7377 11.58 73.0564 11.44 72.3284 11.44C71.395 11.44 70.6577 11.6547 70.1164 12.084C69.5937 12.4947 69.3324 13.1107 69.3324 13.932C69.3324 14.5107 69.5004 15.0333 69.8364 15.5C70.1724 15.948 70.5924 16.34 71.0964 16.676C71.619 17.012 72.319 17.4227 73.1964 17.908C74.0364 18.3747 74.6804 18.748 75.1284 19.028C75.5764 19.2893 75.9964 19.6067 76.3884 19.98C76.9297 20.4653 77.3684 21.044 77.7044 21.716C78.0404 22.388 78.2084 23.1253 78.2084 23.928C78.2084 25.1787 77.919 26.2427 77.3404 27.12C76.7804 27.9973 75.9964 28.66 74.9884 29.108C73.999 29.556 72.8697 29.78 71.6004 29.78ZM98.7746 8.892L108.687 29.5H105.075L103.311 25.468H93.8746L92.1106 29.5H88.6106L98.4666 8.892H98.7746ZM97.3746 17.656L95.1346 22.64H102.079L99.8666 17.684L98.6626 14.856H98.6066L97.3746 17.656ZM111.811 8.92H116.347C118.904 8.92 120.771 9.47067 121.947 10.572C123.141 11.6547 123.739 13.148 123.739 15.052C123.739 17.2547 123.095 18.944 121.807 20.12C120.519 21.296 118.605 21.884 116.067 21.884H114.975V29.5H111.811V8.92ZM116.151 19.112C117.793 19.112 118.941 18.748 119.595 18.02C120.248 17.292 120.575 16.4147 120.575 15.388C120.575 14.2867 120.257 13.3907 119.623 12.7C118.988 12.0093 117.924 11.664 116.431 11.664H114.975V19.112H116.151ZM128.422 8.92H131.558V29.5H128.422V8.92Z" fill="white"/>
</svg>
